{
	"asset":{
		"generator":"Khronos glTF Blender I/O v4.3.47",
		"version":"2.0"
	},
	"scene":0,
	"scenes":[
		{
			"name":"Scene",
			"nodes":[
				12
			]
		}
	],
	"nodes":[
		{
			"mesh":0,
			"name":"InitialDCar_Mat_InitialDCar_0",
			"translation":[
				-0.40200263261795044,
				50.69090270996094,
				3.540372848510742
			]
		},
		{
			"children":[
				0
			],
			"name":"InitialDCar"
		},
		{
			"mesh":1,
			"name":"Wiel_Achter_L_Mat_InitialDCar_0",
			"translation":[
				68.20970153808594,
				27.590139389038086,
				121.34214782714844
			]
		},
		{
			"children":[
				2
			],
			"name":"Wiel_Achter_L",
			"translation":[
				0,
				0,
				-221.11251831054688
			]
		},
		{
			"mesh":2,
			"name":"Wiel_Achter_R_Mat_InitialDCar_0",
			"translation":[
				-68.15259552001953,
				27.630916595458984,
				-99.7440185546875
			]
		},
		{
			"children":[
				4
			],
			"name":"Wiel_Achter_R"
		},
		{
			"mesh":3,
			"name":"Wiel_Voor_L_Mat_InitialDCar_0",
			"translation":[
				68.20970153808594,
				27.590139389038086,
				121.34215545654297
			]
		},
		{
			"children":[
				6
			],
			"name":"Wiel_Voor_L"
		},
		{
			"mesh":4,
			"name":"Wiel_Voor_R_Mat_InitialDCar_0",
			"translation":[
				-68.15325164794922,
				27.630887985229492,
				121.36892700195312
			]
		},
		{
			"children":[
				8
			],
			"name":"Wiel_Voor_R"
		},
		{
			"children":[
				1,
				3,
				5,
				7,
				9
			],
			"name":"RootNode"
		},
		{
			"children":[
				10
			],
			"name":"2ab9fba3ff3c46bfaa19bbb7580f1688.fbx",
			"rotation":[
				0.70710688829422,
				0,
				0,
				0.7071066498756409
			]
		},
		{
			"children":[
				11
			],
			"name":"Sketchfab_model",
			"rotation":[
				-0.70710688829422,
				0,
				0,
				0.7071066498756409
			]
		}
	],
	"materials":[
		{
			"doubleSided":true,
			"emissiveFactor":[
				1,
				1,
				1
			],
			"emissiveTexture":{
				"index":0
			},
			"name":"Mat_InitialDCar",
			"pbrMetallicRoughness":{
				"baseColorTexture":{
					"index":1
				},
				"metallicRoughnessTexture":{
					"index":2
				},
				"roughnessFactor":0.6000000238418579
			}
		}
	],
	"meshes":[
		{
			"name":"InitialDCar_Mat_InitialDCar_0",
			"primitives":[
				{
					"attributes":{
						"POSITION":0,
						"NORMAL":1,
						"TEXCOORD_0":2
					},
					"indices":3,
					"material":0
				}
			]
		},
		{
			"name":"Wiel_Achter_L_Mat_InitialDCar_0",
			"primitives":[
				{
					"attributes":{
						"POSITION":4,
						"NORMAL":5,
						"TEXCOORD_0":6
					},
					"indices":7,
					"material":0
				}
			]
		},
		{
			"name":"Wiel_Achter_R_Mat_InitialDCar_0",
			"primitives":[
				{
					"attributes":{
						"POSITION":8,
						"NORMAL":9,
						"TEXCOORD_0":10
					},
					"indices":11,
					"material":0
				}
			]
		},
		{
			"name":"Wiel_Voor_L_Mat_InitialDCar_0",
			"primitives":[
				{
					"attributes":{
						"POSITION":12,
						"NORMAL":13,
						"TEXCOORD_0":14
					},
					"indices":7,
					"material":0
				}
			]
		},
		{
			"name":"Wiel_Voor_R_Mat_InitialDCar_0",
			"primitives":[
				{
					"attributes":{
						"POSITION":15,
						"NORMAL":16,
						"TEXCOORD_0":17
					},
					"indices":18,
					"material":0
				}
			]
		}
	],
	"textures":[
		{
			"sampler":0,
			"source":0
		},
		{
			"sampler":0,
			"source":1
		},
		{
			"sampler":0,
			"source":2
		}
	],
	"images":[
		{
			"mimeType":"image/png",
			"name":"Mat_InitialDCar_emissive",
			"uri":"Mat_InitialDCar_emissive.png"
		},
		{
			"mimeType":"image/png",
			"name":"Mat_InitialDCar_baseColor",
			"uri":"Mat_InitialDCar_baseColor.png"
		},
		{
			"mimeType":"image/png",
			"name":"Mat_InitialDCar_metallicRoughness",
			"uri":"Mat_InitialDCar_metallicRoughness.png"
		}
	],
	"accessors":[
		{
			"bufferView":0,
			"componentType":5126,
			"count":10773,
			"max":[
				83.85087585449219,
				64.15092468261719,
				195.107666015625
			],
			"min":[
				-83.04656219482422,
				-41.426025390625,
				-193.09561157226562
			],
			"type":"VEC3"
		},
		{
			"bufferView":1,
			"componentType":5126,
			"count":10773,
			"type":"VEC3"
		},
		{
			"bufferView":2,
			"componentType":5126,
			"count":10773,
			"type":"VEC2"
		},
		{
			"bufferView":3,
			"componentType":5123,
			"count":17844,
			"type":"SCALAR"
		},
		{
			"bufferView":4,
			"componentType":5126,
			"count":4058,
			"max":[
				9.31719970703125,
				27.6020450592041,
				27.489906311035156
			],
			"min":[
				-13.224590301513672,
				-27.408092498779297,
				-27.57563018798828
			],
			"type":"VEC3"
		},
		{
			"bufferView":5,
			"componentType":5126,
			"count":4058,
			"type":"VEC3"
		},
		{
			"bufferView":6,
			"componentType":5126,
			"count":4058,
			"type":"VEC2"
		},
		{
			"bufferView":7,
			"componentType":5123,
			"count":9810,
			"type":"SCALAR"
		},
		{
			"bufferView":8,
			"componentType":5126,
			"count":4056,
			"max":[
				13.167484283447266,
				27.561267852783203,
				27.46356201171875
			],
			"min":[
				-9.374305725097656,
				-27.448869705200195,
				-27.601974487304688
			],
			"type":"VEC3"
		},
		{
			"bufferView":9,
			"componentType":5126,
			"count":4056,
			"type":"VEC3"
		},
		{
			"bufferView":10,
			"componentType":5126,
			"count":4056,
			"type":"VEC2"
		},
		{
			"bufferView":11,
			"componentType":5123,
			"count":9810,
			"type":"SCALAR"
		},
		{
			"bufferView":12,
			"componentType":5126,
			"count":4058,
			"max":[
				9.31719970703125,
				27.6020450592041,
				27.489906311035156
			],
			"min":[
				-13.224590301513672,
				-27.408092498779297,
				-27.57563018798828
			],
			"type":"VEC3"
		},
		{
			"bufferView":13,
			"componentType":5126,
			"count":4058,
			"type":"VEC3"
		},
		{
			"bufferView":14,
			"componentType":5126,
			"count":4058,
			"type":"VEC2"
		},
		{
			"bufferView":15,
			"componentType":5126,
			"count":4064,
			"max":[
				13.168140411376953,
				27.561296463012695,
				27.463134765625
			],
			"min":[
				-9.373649597167969,
				-27.448841094970703,
				-27.602401733398438
			],
			"type":"VEC3"
		},
		{
			"bufferView":16,
			"componentType":5126,
			"count":4064,
			"type":"VEC3"
		},
		{
			"bufferView":17,
			"componentType":5126,
			"count":4064,
			"type":"VEC2"
		},
		{
			"bufferView":18,
			"componentType":5123,
			"count":9810,
			"type":"SCALAR"
		}
	],
	"bufferViews":[
		{
			"buffer":0,
			"byteLength":129276,
			"byteOffset":0,
			"target":34962
		},
		{
			"buffer":0,
			"byteLength":129276,
			"byteOffset":129276,
			"target":34962
		},
		{
			"buffer":0,
			"byteLength":86184,
			"byteOffset":258552,
			"target":34962
		},
		{
			"buffer":0,
			"byteLength":35688,
			"byteOffset":344736,
			"target":34963
		},
		{
			"buffer":0,
			"byteLength":48696,
			"byteOffset":380424,
			"target":34962
		},
		{
			"buffer":0,
			"byteLength":48696,
			"byteOffset":429120,
			"target":34962
		},
		{
			"buffer":0,
			"byteLength":32464,
			"byteOffset":477816,
			"target":34962
		},
		{
			"buffer":0,
			"byteLength":19620,
			"byteOffset":510280,
			"target":34963
		},
		{
			"buffer":0,
			"byteLength":48672,
			"byteOffset":529900,
			"target":34962
		},
		{
			"buffer":0,
			"byteLength":48672,
			"byteOffset":578572,
			"target":34962
		},
		{
			"buffer":0,
			"byteLength":32448,
			"byteOffset":627244,
			"target":34962
		},
		{
			"buffer":0,
			"byteLength":19620,
			"byteOffset":659692,
			"target":34963
		},
		{
			"buffer":0,
			"byteLength":48696,
			"byteOffset":679312,
			"target":34962
		},
		{
			"buffer":0,
			"byteLength":48696,
			"byteOffset":728008,
			"target":34962
		},
		{
			"buffer":0,
			"byteLength":32464,
			"byteOffset":776704,
			"target":34962
		},
		{
			"buffer":0,
			"byteLength":48768,
			"byteOffset":809168,
			"target":34962
		},
		{
			"buffer":0,
			"byteLength":48768,
			"byteOffset":857936,
			"target":34962
		},
		{
			"buffer":0,
			"byteLength":32512,
			"byteOffset":906704,
			"target":34962
		},
		{
			"buffer":0,
			"byteLength":19620,
			"byteOffset":939216,
			"target":34963
		}
	],
	"samplers":[
		{
			"magFilter":9729,
			"minFilter":9987
		}
	],
	"buffers":[
		{
			"byteLength":958836,
			"uri":"car.bin"
		}
	]
}
